# Tiled2Unity generated file. Do not modify by hand.
# Wavefront file for 'untitled_mesh_0002.obj'

# Vertices (Count = 980)
v -688 -240 0
v -704 -240 0
v -704 -224 0
v -688 -224 0
v -672 -240 0
v -688 -240 0
v -688 -224 0
v -672 -224 0
v -656 -240 0
v -672 -240 0
v -672 -224 0
v -656 -224 0
v -640 -240 0
v -656 -240 0
v -656 -224 0
v -640 -224 0
v -624 -240 0
v -640 -240 0
v -640 -224 0
v -624 -224 0
v -608 -240 0
v -624 -240 0
v -624 -224 0
v -608 -224 0
v -592 -240 0
v -608 -240 0
v -608 -224 0
v -592 -224 0
v -576 -240 0
v -592 -240 0
v -592 -224 0
v -576 -224 0
v -560 -240 0
v -576 -240 0
v -576 -224 0
v -560 -224 0
v -544 -240 0
v -560 -240 0
v -560 -224 0
v -544 -224 0
v -528 -240 0
v -544 -240 0
v -544 -224 0
v -528 -224 0
v -512 -240 0
v -528 -240 0
v -528 -224 0
v -512 -224 0
v -496 -240 0
v -512 -240 0
v -512 -224 0
v -496 -224 0
v -480 -240 0
v -496 -240 0
v -496 -224 0
v -480 -224 0
v -464 -240 0
v -480 -240 0
v -480 -224 0
v -464 -224 0
v -448 -240 0
v -464 -240 0
v -464 -224 0
v -448 -224 0
v -432 -240 0
v -448 -240 0
v -448 -224 0
v -432 -224 0
v -400 -288 0
v -416 -288 0
v -416 -272 0
v -400 -272 0
v -400 -304 0
v -416 -304 0
v -416 -288 0
v -400 -288 0
v -400 -320 0
v -416 -320 0
v -416 -304 0
v -400 -304 0
v -400 -368 0
v -416 -368 0
v -416 -352 0
v -400 -352 0
v -400 -384 0
v -416 -384 0
v -416 -368 0
v -400 -368 0
v -400 -400 0
v -416 -400 0
v -416 -384 0
v -400 -384 0
v -320 -400 0
v -336 -400 0
v -336 -384 0
v -320 -384 0
v -304 -400 0
v -320 -400 0
v -320 -384 0
v -304 -384 0
v -288 -400 0
v -304 -400 0
v -304 -384 0
v -288 -384 0
v -400 -416 0
v -416 -416 0
v -416 -400 0
v -400 -400 0
v -320 -416 0
v -336 -416 0
v -336 -400 0
v -320 -400 0
v -304 -416 0
v -320 -416 0
v -320 -400 0
v -304 -400 0
v -288 -416 0
v -304 -416 0
v -304 -400 0
v -288 -400 0
v -400 -432 0
v -416 -432 0
v -416 -416 0
v -400 -416 0
v -320 -432 0
v -336 -432 0
v -336 -416 0
v -320 -416 0
v -304 -432 0
v -320 -432 0
v -320 -416 0
v -304 -416 0
v -288 -432 0
v -304 -432 0
v -304 -416 0
v -288 -416 0
v -400 -448 0
v -416 -448 0
v -416 -432 0
v -400 -432 0
v -320 -448 0
v -336 -448 0
v -336 -432 0
v -320 -432 0
v -304 -448 0
v -320 -448 0
v -320 -432 0
v -304 -432 0
v -288 -448 0
v -304 -448 0
v -304 -432 0
v -288 -432 0
v -400 -464 0
v -416 -464 0
v -416 -448 0
v -400 -448 0
v -320 -464 0
v -336 -464 0
v -336 -448 0
v -320 -448 0
v -304 -464 0
v -320 -464 0
v -320 -448 0
v -304 -448 0
v -288 -464 0
v -304 -464 0
v -304 -448 0
v -288 -448 0
v -400 -480 0
v -416 -480 0
v -416 -464 0
v -400 -464 0
v -320 -480 0
v -336 -480 0
v -336 -464 0
v -320 -464 0
v -304 -480 0
v -320 -480 0
v -320 -464 0
v -304 -464 0
v -288 -480 0
v -304 -480 0
v -304 -464 0
v -288 -464 0
v -400 -496 0
v -416 -496 0
v -416 -480 0
v -400 -480 0
v -320 -496 0
v -336 -496 0
v -336 -480 0
v -320 -480 0
v -304 -496 0
v -320 -496 0
v -320 -480 0
v -304 -480 0
v -288 -496 0
v -304 -496 0
v -304 -480 0
v -288 -480 0
v -400 -512 0
v -416 -512 0
v -416 -496 0
v -400 -496 0
v -320 -512 0
v -336 -512 0
v -336 -496 0
v -320 -496 0
v -304 -512 0
v -320 -512 0
v -320 -496 0
v -304 -496 0
v -288 -512 0
v -304 -512 0
v -304 -496 0
v -288 -496 0
v -320 -528 0
v -336 -528 0
v -336 -512 0
v -320 -512 0
v -304 -528 0
v -320 -528 0
v -320 -512 0
v -304 -512 0
v -288 -528 0
v -304 -528 0
v -304 -512 0
v -288 -512 0
v -320 -544 0
v -336 -544 0
v -336 -528 0
v -320 -528 0
v -304 -544 0
v -320 -544 0
v -320 -528 0
v -304 -528 0
v -288 -544 0
v -304 -544 0
v -304 -528 0
v -288 -528 0
v -320 -560 0
v -336 -560 0
v -336 -544 0
v -320 -544 0
v -304 -560 0
v -320 -560 0
v -320 -544 0
v -304 -544 0
v -288 -560 0
v -304 -560 0
v -304 -544 0
v -288 -544 0
v -320 -576 0
v -336 -576 0
v -336 -560 0
v -320 -560 0
v -304 -576 0
v -320 -576 0
v -320 -560 0
v -304 -560 0
v -288 -576 0
v -304 -576 0
v -304 -560 0
v -288 -560 0
v -320 -592 0
v -336 -592 0
v -336 -576 0
v -320 -576 0
v -304 -592 0
v -320 -592 0
v -320 -576 0
v -304 -576 0
v -288 -592 0
v -304 -592 0
v -304 -576 0
v -288 -576 0
v -320 -608 0
v -336 -608 0
v -336 -592 0
v -320 -592 0
v -304 -608 0
v -320 -608 0
v -320 -592 0
v -304 -592 0
v -288 -608 0
v -304 -608 0
v -304 -592 0
v -288 -592 0
v -272 -608 0
v -288 -608 0
v -288 -592 0
v -272 -592 0
v -320 -624 0
v -336 -624 0
v -336 -608 0
v -320 -608 0
v -304 -624 0
v -320 -624 0
v -320 -608 0
v -304 -608 0
v -288 -624 0
v -304 -624 0
v -304 -608 0
v -288 -608 0
v -272 -624 0
v -288 -624 0
v -288 -608 0
v -272 -608 0
v -304 -640 0
v -320 -640 0
v -320 -624 0
v -304 -624 0
v -288 -640 0
v -304 -640 0
v -304 -624 0
v -288 -624 0
v -272 -640 0
v -288 -640 0
v -288 -624 0
v -272 -624 0
v -304 -656 0
v -320 -656 0
v -320 -640 0
v -304 -640 0
v -288 -656 0
v -304 -656 0
v -304 -640 0
v -288 -640 0
v -272 -656 0
v -288 -656 0
v -288 -640 0
v -272 -640 0
v -304 -672 0
v -320 -672 0
v -320 -656 0
v -304 -656 0
v -288 -672 0
v -304 -672 0
v -304 -656 0
v -288 -656 0
v -272 -672 0
v -288 -672 0
v -288 -656 0
v -272 -656 0
v -256 -672 0
v -272 -672 0
v -272 -656 0
v -256 -656 0
v -304 -688 0
v -320 -688 0
v -320 -672 0
v -304 -672 0
v -288 -688 0
v -304 -688 0
v -304 -672 0
v -288 -672 0
v -272 -688 0
v -288 -688 0
v -288 -672 0
v -272 -672 0
v -256 -688 0
v -272 -688 0
v -272 -672 0
v -256 -672 0
v -240 -688 0
v -256 -688 0
v -256 -672 0
v -240 -672 0
v -304 -704 0
v -320 -704 0
v -320 -688 0
v -304 -688 0
v -288 -704 0
v -304 -704 0
v -304 -688 0
v -288 -688 0
v -272 -704 0
v -288 -704 0
v -288 -688 0
v -272 -688 0
v -256 -704 0
v -272 -704 0
v -272 -688 0
v -256 -688 0
v -240 -704 0
v -256 -704 0
v -256 -688 0
v -240 -688 0
v -224 -704 0
v -240 -704 0
v -240 -688 0
v -224 -688 0
v -288 -720 0
v -304 -720 0
v -304 -704 0
v -288 -704 0
v -272 -720 0
v -288 -720 0
v -288 -704 0
v -272 -704 0
v -256 -720 0
v -272 -720 0
v -272 -704 0
v -256 -704 0
v -240 -720 0
v -256 -720 0
v -256 -704 0
v -240 -704 0
v -224 -720 0
v -240 -720 0
v -240 -704 0
v -224 -704 0
v -208 -720 0
v -224 -720 0
v -224 -704 0
v -208 -704 0
v -272 -736 0
v -288 -736 0
v -288 -720 0
v -272 -720 0
v -256 -736 0
v -272 -736 0
v -272 -720 0
v -256 -720 0
v -240 -736 0
v -256 -736 0
v -256 -720 0
v -240 -720 0
v -224 -736 0
v -240 -736 0
v -240 -720 0
v -224 -720 0
v -208 -736 0
v -224 -736 0
v -224 -720 0
v -208 -720 0
v -672 -752 0
v -688 -752 0
v -688 -736 0
v -672 -736 0
v -432 -752 0
v -448 -752 0
v -448 -736 0
v -432 -736 0
v -256 -752 0
v -272 -752 0
v -272 -736 0
v -256 -736 0
v -240 -752 0
v -256 -752 0
v -256 -736 0
v -240 -736 0
v -224 -752 0
v -240 -752 0
v -240 -736 0
v -224 -736 0
v -208 -752 0
v -224 -752 0
v -224 -736 0
v -208 -736 0
v -672 -768 0
v -688 -768 0
v -688 -752 0
v -672 -752 0
v -368 -768 0
v -384 -768 0
v -384 -752 0
v -368 -752 0
v -240 -768 0
v -256 -768 0
v -256 -752 0
v -240 -752 0
v -224 -768 0
v -240 -768 0
v -240 -752 0
v -224 -752 0
v -208 -768 0
v -224 -768 0
v -224 -752 0
v -208 -752 0
v -192 -768 0
v -208 -768 0
v -208 -752 0
v -192 -752 0
v -240 -784 0
v -256 -784 0
v -256 -768 0
v -240 -768 0
v -224 -784 0
v -240 -784 0
v -240 -768 0
v -224 -768 0
v -208 -784 0
v -224 -784 0
v -224 -768 0
v -208 -768 0
v -192 -784 0
v -208 -784 0
v -208 -768 0
v -192 -768 0
v -240 -800 0
v -256 -800 0
v -256 -784 0
v -240 -784 0
v -224 -800 0
v -240 -800 0
v -240 -784 0
v -224 -784 0
v -208 -800 0
v -224 -800 0
v -224 -784 0
v -208 -784 0
v -192 -800 0
v -208 -800 0
v -208 -784 0
v -192 -784 0
v -224 -816 0
v -240 -816 0
v -240 -800 0
v -224 -800 0
v -208 -816 0
v -224 -816 0
v -224 -800 0
v -208 -800 0
v -192 -816 0
v -208 -816 0
v -208 -800 0
v -192 -800 0
v -224 -832 0
v -240 -832 0
v -240 -816 0
v -224 -816 0
v -208 -832 0
v -224 -832 0
v -224 -816 0
v -208 -816 0
v -192 -832 0
v -208 -832 0
v -208 -816 0
v -192 -816 0
v -224 -848 0
v -240 -848 0
v -240 -832 0
v -224 -832 0
v -208 -848 0
v -224 -848 0
v -224 -832 0
v -208 -832 0
v -192 -848 0
v -208 -848 0
v -208 -832 0
v -192 -832 0
v -224 -864 0
v -240 -864 0
v -240 -848 0
v -224 -848 0
v -208 -864 0
v -224 -864 0
v -224 -848 0
v -208 -848 0
v -192 -864 0
v -208 -864 0
v -208 -848 0
v -192 -848 0
v -224 -880 0
v -240 -880 0
v -240 -864 0
v -224 -864 0
v -208 -880 0
v -224 -880 0
v -224 -864 0
v -208 -864 0
v -192 -880 0
v -208 -880 0
v -208 -864 0
v -192 -864 0
v -592 -896 0
v -608 -896 0
v -608 -880 0
v -592 -880 0
v -576 -896 0
v -592 -896 0
v -592 -880 0
v -576 -880 0
v -560 -896 0
v -576 -896 0
v -576 -880 0
v -560 -880 0
v -544 -896 0
v -560 -896 0
v -560 -880 0
v -544 -880 0
v -528 -896 0
v -544 -896 0
v -544 -880 0
v -528 -880 0
v -512 -896 0
v -528 -896 0
v -528 -880 0
v -512 -880 0
v -496 -896 0
v -512 -896 0
v -512 -880 0
v -496 -880 0
v -224 -896 0
v -240 -896 0
v -240 -880 0
v -224 -880 0
v -208 -896 0
v -224 -896 0
v -224 -880 0
v -208 -880 0
v -192 -896 0
v -208 -896 0
v -208 -880 0
v -192 -880 0
v -608 -912 0
v -624 -912 0
v -624 -896 0
v -608 -896 0
v -592 -912 0
v -608 -912 0
v -608 -896 0
v -592 -896 0
v -576 -912 0
v -592 -912 0
v -592 -896 0
v -576 -896 0
v -560 -912 0
v -576 -912 0
v -576 -896 0
v -560 -896 0
v -544 -912 0
v -560 -912 0
v -560 -896 0
v -544 -896 0
v -528 -912 0
v -544 -912 0
v -544 -896 0
v -528 -896 0
v -512 -912 0
v -528 -912 0
v -528 -896 0
v -512 -896 0
v -496 -912 0
v -512 -912 0
v -512 -896 0
v -496 -896 0
v -480 -912 0
v -496 -912 0
v -496 -896 0
v -480 -896 0
v -464 -912 0
v -480 -912 0
v -480 -896 0
v -464 -896 0
v -448 -912 0
v -464 -912 0
v -464 -896 0
v -448 -896 0
v -432 -912 0
v -448 -912 0
v -448 -896 0
v -432 -896 0
v -416 -912 0
v -432 -912 0
v -432 -896 0
v -416 -896 0
v -400 -912 0
v -416 -912 0
v -416 -896 0
v -400 -896 0
v -224 -912 0
v -240 -912 0
v -240 -896 0
v -224 -896 0
v -208 -912 0
v -224 -912 0
v -224 -896 0
v -208 -896 0
v -192 -912 0
v -208 -912 0
v -208 -896 0
v -192 -896 0
v -640 -928 0
v -656 -928 0
v -656 -912 0
v -640 -912 0
v -624 -928 0
v -640 -928 0
v -640 -912 0
v -624 -912 0
v -608 -928 0
v -624 -928 0
v -624 -912 0
v -608 -912 0
v -592 -928 0
v -608 -928 0
v -608 -912 0
v -592 -912 0
v -576 -928 0
v -592 -928 0
v -592 -912 0
v -576 -912 0
v -560 -928 0
v -576 -928 0
v -576 -912 0
v -560 -912 0
v -544 -928 0
v -560 -928 0
v -560 -912 0
v -544 -912 0
v -528 -928 0
v -544 -928 0
v -544 -912 0
v -528 -912 0
v -512 -928 0
v -528 -928 0
v -528 -912 0
v -512 -912 0
v -496 -928 0
v -512 -928 0
v -512 -912 0
v -496 -912 0
v -480 -928 0
v -496 -928 0
v -496 -912 0
v -480 -912 0
v -464 -928 0
v -480 -928 0
v -480 -912 0
v -464 -912 0
v -448 -928 0
v -464 -928 0
v -464 -912 0
v -448 -912 0
v -432 -928 0
v -448 -928 0
v -448 -912 0
v -432 -912 0
v -416 -928 0
v -432 -928 0
v -432 -912 0
v -416 -912 0
v -400 -928 0
v -416 -928 0
v -416 -912 0
v -400 -912 0
v -384 -928 0
v -400 -928 0
v -400 -912 0
v -384 -912 0
v -368 -928 0
v -384 -928 0
v -384 -912 0
v -368 -912 0
v -352 -928 0
v -368 -928 0
v -368 -912 0
v -352 -912 0
v -336 -928 0
v -352 -928 0
v -352 -912 0
v -336 -912 0
v -320 -928 0
v -336 -928 0
v -336 -912 0
v -320 -912 0
v -304 -928 0
v -320 -928 0
v -320 -912 0
v -304 -912 0
v -288 -928 0
v -304 -928 0
v -304 -912 0
v -288 -912 0
v -272 -928 0
v -288 -928 0
v -288 -912 0
v -272 -912 0
v -256 -928 0
v -272 -928 0
v -272 -912 0
v -256 -912 0
v -240 -928 0
v -256 -928 0
v -256 -912 0
v -240 -912 0
v -224 -928 0
v -240 -928 0
v -240 -912 0
v -224 -912 0
v -208 -928 0
v -224 -928 0
v -224 -912 0
v -208 -912 0
v -192 -928 0
v -208 -928 0
v -208 -912 0
v -192 -912 0
v -640 -944 0
v -656 -944 0
v -656 -928 0
v -640 -928 0
v -624 -944 0
v -640 -944 0
v -640 -928 0
v -624 -928 0
v -608 -944 0
v -624 -944 0
v -624 -928 0
v -608 -928 0
v -592 -944 0
v -608 -944 0
v -608 -928 0
v -592 -928 0
v -576 -944 0
v -592 -944 0
v -592 -928 0
v -576 -928 0
v -512 -944 0
v -528 -944 0
v -528 -928 0
v -512 -928 0
v -496 -944 0
v -512 -944 0
v -512 -928 0
v -496 -928 0
v -480 -944 0
v -496 -944 0
v -496 -928 0
v -480 -928 0
v -464 -944 0
v -480 -944 0
v -480 -928 0
v -464 -928 0
v -448 -944 0
v -464 -944 0
v -464 -928 0
v -448 -928 0
v -432 -944 0
v -448 -944 0
v -448 -928 0
v -432 -928 0
v -416 -944 0
v -432 -944 0
v -432 -928 0
v -416 -928 0
v -400 -944 0
v -416 -944 0
v -416 -928 0
v -400 -928 0
v -384 -944 0
v -400 -944 0
v -400 -928 0
v -384 -928 0
v -368 -944 0
v -384 -944 0
v -384 -928 0
v -368 -928 0
v -352 -944 0
v -368 -944 0
v -368 -928 0
v -352 -928 0
v -336 -944 0
v -352 -944 0
v -352 -928 0
v -336 -928 0
v -320 -944 0
v -336 -944 0
v -336 -928 0
v -320 -928 0
v -304 -944 0
v -320 -944 0
v -320 -928 0
v -304 -928 0
v -288 -944 0
v -304 -944 0
v -304 -928 0
v -288 -928 0
v -272 -944 0
v -288 -944 0
v -288 -928 0
v -272 -928 0
v -256 -944 0
v -272 -944 0
v -272 -928 0
v -256 -928 0
v -240 -944 0
v -256 -944 0
v -256 -928 0
v -240 -928 0
v -224 -944 0
v -240 -944 0
v -240 -928 0
v -224 -928 0
v -208 -944 0
v -224 -944 0
v -224 -928 0
v -208 -928 0
v -192 -944 0
v -208 -944 0
v -208 -928 0
v -192 -928 0
v -640 -960 0
v -656 -960 0
v -656 -944 0
v -640 -944 0
v -624 -960 0
v -640 -960 0
v -640 -944 0
v -624 -944 0
v -608 -960 0
v -624 -960 0
v -624 -944 0
v -608 -944 0
v -592 -960 0
v -608 -960 0
v -608 -944 0
v -592 -944 0
v -416 -960 0
v -432 -960 0
v -432 -944 0
v -416 -944 0
v -400 -960 0
v -416 -960 0
v -416 -944 0
v -400 -944 0
v -384 -960 0
v -400 -960 0
v -400 -944 0
v -384 -944 0
v -368 -960 0
v -384 -960 0
v -384 -944 0
v -368 -944 0
v -352 -960 0
v -368 -960 0
v -368 -944 0
v -352 -944 0
v -336 -960 0
v -352 -960 0
v -352 -944 0
v -336 -944 0
v -320 -960 0
v -336 -960 0
v -336 -944 0
v -320 -944 0
v -304 -960 0
v -320 -960 0
v -320 -944 0
v -304 -944 0
v -288 -960 0
v -304 -960 0
v -304 -944 0
v -288 -944 0
v -272 -960 0
v -288 -960 0
v -288 -944 0
v -272 -944 0
v -256 -960 0
v -272 -960 0
v -272 -944 0
v -256 -944 0
v -240 -960 0
v -256 -960 0
v -256 -944 0
v -240 -944 0
v -224 -960 0
v -240 -960 0
v -240 -944 0
v -224 -944 0
v -208 -960 0
v -224 -960 0
v -224 -944 0
v -208 -944 0
v -192 -960 0
v -208 -960 0
v -208 -944 0
v -192 -944 0

# Texture cooridinates (Count = 76)
vt 0.1931818 0.904943
vt 0.2097107 0.904943
vt 0.2097107 0.9353612
vt 0.1931818 0.9353612
vt 0.4566116 0.7756654
vt 0.4731405 0.7756654
vt 0.4731405 0.8060837
vt 0.4566116 0.8060837
vt 0.4390496 0.7756654
vt 0.4555785 0.7756654
vt 0.4555785 0.8060837
vt 0.4390496 0.8060837
vt 0.1580579 0.6787072
vt 0.1745868 0.6787072
vt 0.1745868 0.7091255
vt 0.1580579 0.7091255
vt 0.1404959 0.6787072
vt 0.1570248 0.6787072
vt 0.1570248 0.7091255
vt 0.1404959 0.7091255
vt 0.1229339 0.6787072
vt 0.1394628 0.6787072
vt 0.1394628 0.7091255
vt 0.1229339 0.7091255
vt 0.1580579 0.6463878
vt 0.1745868 0.6463878
vt 0.1745868 0.6768061
vt 0.1580579 0.6768061
vt 0.1404959 0.6463878
vt 0.1570248 0.6463878
vt 0.1570248 0.6768061
vt 0.1404959 0.6768061
vt 0.1229339 0.6463878
vt 0.1394628 0.6463878
vt 0.1394628 0.6768061
vt 0.1229339 0.6768061
vt 0.1053719 0.6463878
vt 0.1219008 0.6463878
vt 0.1219008 0.6768061
vt 0.1053719 0.6768061
vt 0.1580579 0.6140684
vt 0.1745868 0.6140684
vt 0.1745868 0.6444867
vt 0.1580579 0.6444867
vt 0.08780992 0.6787072
vt 0.1043388 0.6787072
vt 0.1043388 0.7091255
vt 0.08780992 0.7091255
vt 0.2809917 0.6463878
vt 0.2975207 0.6463878
vt 0.2975207 0.6768061
vt 0.2809917 0.6768061
vt 0.2634298 0.9695817
vt 0.2799587 0.9695817
vt 0.2799587 1
vt 0.2634298 1
vt 0.2809917 0.6140684
vt 0.2975207 0.6140684
vt 0.2975207 0.6444867
vt 0.2809917 0.6444867
vt 0.08780992 0.6463878
vt 0.1043388 0.6463878
vt 0.1043388 0.6768061
vt 0.08780992 0.6768061
vt 0.1053719 0.6787072
vt 0.1219008 0.6787072
vt 0.1219008 0.7091255
vt 0.1053719 0.7091255
vt 0.1404959 0.6140684
vt 0.1570248 0.6140684
vt 0.1570248 0.6444867
vt 0.1404959 0.6444867
vt 0.1229339 0.6140684
vt 0.1394628 0.6140684
vt 0.1394628 0.6444867
vt 0.1229339 0.6444867

# Normal
vn 0 0 -1

# Mesh description
g untitled_mesh_0002

# Faces
f 1/1/1 2/2/1 3/3/1 4/4/1
f 5/1/1 6/2/1 7/3/1 8/4/1
f 9/1/1 10/2/1 11/3/1 12/4/1
f 13/1/1 14/2/1 15/3/1 16/4/1
f 17/1/1 18/2/1 19/3/1 20/4/1
f 21/1/1 22/2/1 23/3/1 24/4/1
f 25/1/1 26/2/1 27/3/1 28/4/1
f 29/1/1 30/2/1 31/3/1 32/4/1
f 33/1/1 34/2/1 35/3/1 36/4/1
f 37/1/1 38/2/1 39/3/1 40/4/1
f 41/1/1 42/2/1 43/3/1 44/4/1
f 45/1/1 46/2/1 47/3/1 48/4/1
f 49/1/1 50/2/1 51/3/1 52/4/1
f 53/1/1 54/2/1 55/3/1 56/4/1
f 57/1/1 58/2/1 59/3/1 60/4/1
f 61/1/1 62/2/1 63/3/1 64/4/1
f 65/1/1 66/2/1 67/3/1 68/4/1
f 69/5/1 70/6/1 71/7/1 72/8/1
f 73/5/1 74/6/1 75/7/1 76/8/1
f 77/5/1 78/6/1 79/7/1 80/8/1
f 81/9/1 82/10/1 83/11/1 84/12/1
f 85/9/1 86/10/1 87/11/1 88/12/1
f 89/9/1 90/10/1 91/11/1 92/12/1
f 93/13/1 94/14/1 95/15/1 96/16/1
f 97/17/1 98/18/1 99/19/1 100/20/1
f 101/21/1 102/22/1 103/23/1 104/24/1
f 105/9/1 106/10/1 107/11/1 108/12/1
f 109/25/1 110/26/1 111/27/1 112/28/1
f 113/29/1 114/30/1 115/31/1 116/32/1
f 117/33/1 118/34/1 119/35/1 120/36/1
f 121/9/1 122/10/1 123/11/1 124/12/1
f 125/25/1 126/26/1 127/27/1 128/28/1
f 129/29/1 130/30/1 131/31/1 132/32/1
f 133/33/1 134/34/1 135/35/1 136/36/1
f 137/9/1 138/10/1 139/11/1 140/12/1
f 141/25/1 142/26/1 143/27/1 144/28/1
f 145/29/1 146/30/1 147/31/1 148/32/1
f 149/33/1 150/34/1 151/35/1 152/36/1
f 153/9/1 154/10/1 155/11/1 156/12/1
f 157/25/1 158/26/1 159/27/1 160/28/1
f 161/29/1 162/30/1 163/31/1 164/32/1
f 165/33/1 166/34/1 167/35/1 168/36/1
f 169/9/1 170/10/1 171/11/1 172/12/1
f 173/25/1 174/26/1 175/27/1 176/28/1
f 177/29/1 178/30/1 179/31/1 180/32/1
f 181/33/1 182/34/1 183/35/1 184/36/1
f 185/9/1 186/10/1 187/11/1 188/12/1
f 189/25/1 190/26/1 191/27/1 192/28/1
f 193/29/1 194/30/1 195/31/1 196/32/1
f 197/33/1 198/34/1 199/35/1 200/36/1
f 201/9/1 202/10/1 203/11/1 204/12/1
f 205/25/1 206/26/1 207/27/1 208/28/1
f 209/29/1 210/30/1 211/31/1 212/32/1
f 213/33/1 214/34/1 215/35/1 216/36/1
f 217/25/1 218/26/1 219/27/1 220/28/1
f 221/29/1 222/30/1 223/31/1 224/32/1
f 225/33/1 226/34/1 227/35/1 228/36/1
f 229/25/1 230/26/1 231/27/1 232/28/1
f 233/29/1 234/30/1 235/31/1 236/32/1
f 237/33/1 238/34/1 239/35/1 240/36/1
f 241/25/1 242/26/1 243/27/1 244/28/1
f 245/29/1 246/30/1 247/31/1 248/32/1
f 249/33/1 250/34/1 251/35/1 252/36/1
f 253/25/1 254/26/1 255/27/1 256/28/1
f 257/29/1 258/30/1 259/31/1 260/32/1
f 261/33/1 262/34/1 263/35/1 264/36/1
f 265/25/1 266/26/1 267/27/1 268/28/1
f 269/29/1 270/30/1 271/31/1 272/32/1
f 273/33/1 274/34/1 275/35/1 276/36/1
f 277/25/1 278/26/1 279/27/1 280/28/1
f 281/29/1 282/30/1 283/31/1 284/32/1
f 285/37/1 286/38/1 287/39/1 288/40/1
f 289/21/1 290/22/1 291/23/1 292/24/1
f 293/41/1 294/42/1 295/43/1 296/44/1
f 297/45/1 298/46/1 299/47/1 300/48/1
f 301/29/1 302/30/1 303/31/1 304/32/1
f 305/33/1 306/34/1 307/35/1 308/36/1
f 309/25/1 310/26/1 311/27/1 312/28/1
f 313/29/1 314/30/1 315/31/1 316/32/1
f 317/33/1 318/34/1 319/35/1 320/36/1
f 321/25/1 322/26/1 323/27/1 324/28/1
f 325/29/1 326/30/1 327/31/1 328/32/1
f 329/33/1 330/34/1 331/35/1 332/36/1
f 333/25/1 334/26/1 335/27/1 336/28/1
f 337/29/1 338/30/1 339/31/1 340/32/1
f 341/37/1 342/38/1 343/39/1 344/40/1
f 345/21/1 346/22/1 347/23/1 348/24/1
f 349/25/1 350/26/1 351/27/1 352/28/1
f 353/29/1 354/30/1 355/31/1 356/32/1
f 357/29/1 358/30/1 359/31/1 360/32/1
f 361/37/1 362/38/1 363/39/1 364/40/1
f 365/21/1 366/22/1 367/23/1 368/24/1
f 369/41/1 370/42/1 371/43/1 372/44/1
f 373/45/1 374/46/1 375/47/1 376/48/1
f 377/29/1 378/30/1 379/31/1 380/32/1
f 381/29/1 382/30/1 383/31/1 384/32/1
f 385/37/1 386/38/1 387/39/1 388/40/1
f 389/21/1 390/22/1 391/23/1 392/24/1
f 393/41/1 394/42/1 395/43/1 396/44/1
f 397/45/1 398/46/1 399/47/1 400/48/1
f 401/29/1 402/30/1 403/31/1 404/32/1
f 405/29/1 406/30/1 407/31/1 408/32/1
f 409/37/1 410/38/1 411/39/1 412/40/1
f 413/21/1 414/22/1 415/23/1 416/24/1
f 417/41/1 418/42/1 419/43/1 420/44/1
f 421/45/1 422/46/1 423/47/1 424/48/1
f 425/29/1 426/30/1 427/31/1 428/32/1
f 429/29/1 430/30/1 431/31/1 432/32/1
f 433/33/1 434/34/1 435/35/1 436/36/1
f 437/49/1 438/50/1 439/51/1 440/52/1
f 441/53/1 442/54/1 443/55/1 444/56/1
f 445/41/1 446/42/1 447/43/1 448/44/1
f 449/45/1 450/46/1 451/47/1 452/48/1
f 453/29/1 454/30/1 455/31/1 456/32/1
f 457/33/1 458/34/1 459/35/1 460/36/1
f 461/57/1 462/58/1 463/59/1 464/60/1
f 465/53/1 466/54/1 467/55/1 468/56/1
f 469/25/1 470/26/1 471/27/1 472/28/1
f 473/29/1 474/30/1 475/31/1 476/32/1
f 477/37/1 478/38/1 479/39/1 480/40/1
f 481/21/1 482/22/1 483/23/1 484/24/1
f 485/25/1 486/26/1 487/27/1 488/28/1
f 489/29/1 490/30/1 491/31/1 492/32/1
f 493/29/1 494/30/1 495/31/1 496/32/1
f 497/33/1 498/34/1 499/35/1 500/36/1
f 501/41/1 502/42/1 503/43/1 504/44/1
f 505/45/1 506/46/1 507/47/1 508/48/1
f 509/29/1 510/30/1 511/31/1 512/32/1
f 513/33/1 514/34/1 515/35/1 516/36/1
f 517/25/1 518/26/1 519/27/1 520/28/1
f 521/29/1 522/30/1 523/31/1 524/32/1
f 525/33/1 526/34/1 527/35/1 528/36/1
f 529/25/1 530/26/1 531/27/1 532/28/1
f 533/29/1 534/30/1 535/31/1 536/32/1
f 537/33/1 538/34/1 539/35/1 540/36/1
f 541/25/1 542/26/1 543/27/1 544/28/1
f 545/29/1 546/30/1 547/31/1 548/32/1
f 549/33/1 550/34/1 551/35/1 552/36/1
f 553/25/1 554/26/1 555/27/1 556/28/1
f 557/29/1 558/30/1 559/31/1 560/32/1
f 561/33/1 562/34/1 563/35/1 564/36/1
f 565/25/1 566/26/1 567/27/1 568/28/1
f 569/29/1 570/30/1 571/31/1 572/32/1
f 573/33/1 574/34/1 575/35/1 576/36/1
f 577/13/1 578/14/1 579/15/1 580/16/1
f 581/17/1 582/18/1 583/19/1 584/20/1
f 585/17/1 586/18/1 587/19/1 588/20/1
f 589/17/1 590/18/1 591/19/1 592/20/1
f 593/17/1 594/18/1 595/19/1 596/20/1
f 597/17/1 598/18/1 599/19/1 600/20/1
f 601/21/1 602/22/1 603/23/1 604/24/1
f 605/25/1 606/26/1 607/27/1 608/28/1
f 609/29/1 610/30/1 611/31/1 612/32/1
f 613/33/1 614/34/1 615/35/1 616/36/1
f 617/13/1 618/14/1 619/15/1 620/16/1
f 621/61/1 622/62/1 623/63/1 624/64/1
f 625/29/1 626/30/1 627/31/1 628/32/1
f 629/29/1 630/30/1 631/31/1 632/32/1
f 633/29/1 634/30/1 635/31/1 636/32/1
f 637/29/1 638/30/1 639/31/1 640/32/1
f 641/29/1 642/30/1 643/31/1 644/32/1
f 645/37/1 646/38/1 647/39/1 648/40/1
f 649/17/1 650/18/1 651/19/1 652/20/1
f 653/17/1 654/18/1 655/19/1 656/20/1
f 657/17/1 658/18/1 659/19/1 660/20/1
f 661/17/1 662/18/1 663/19/1 664/20/1
f 665/17/1 666/18/1 667/19/1 668/20/1
f 669/21/1 670/22/1 671/23/1 672/24/1
f 673/25/1 674/26/1 675/27/1 676/28/1
f 677/29/1 678/30/1 679/31/1 680/32/1
f 681/33/1 682/34/1 683/35/1 684/36/1
f 685/13/1 686/14/1 687/15/1 688/16/1
f 689/17/1 690/18/1 691/19/1 692/20/1
f 693/61/1 694/62/1 695/63/1 696/64/1
f 697/29/1 698/30/1 699/31/1 700/32/1
f 701/65/1 702/66/1 703/67/1 704/68/1
f 705/69/1 706/70/1 707/71/1 708/72/1
f 709/69/1 710/70/1 711/71/1 712/72/1
f 713/69/1 714/70/1 715/71/1 716/72/1
f 717/45/1 718/46/1 719/47/1 720/48/1
f 721/29/1 722/30/1 723/31/1 724/32/1
f 725/29/1 726/30/1 727/31/1 728/32/1
f 729/29/1 730/30/1 731/31/1 732/32/1
f 733/29/1 734/30/1 735/31/1 736/32/1
f 737/29/1 738/30/1 739/31/1 740/32/1
f 741/29/1 742/30/1 743/31/1 744/32/1
f 745/37/1 746/38/1 747/39/1 748/40/1
f 749/17/1 750/18/1 751/19/1 752/20/1
f 753/17/1 754/18/1 755/19/1 756/20/1
f 757/17/1 758/18/1 759/19/1 760/20/1
f 761/17/1 762/18/1 763/19/1 764/20/1
f 765/17/1 766/18/1 767/19/1 768/20/1
f 769/17/1 770/18/1 771/19/1 772/20/1
f 773/17/1 774/18/1 775/19/1 776/20/1
f 777/17/1 778/18/1 779/19/1 780/20/1
f 781/17/1 782/18/1 783/19/1 784/20/1
f 785/17/1 786/18/1 787/19/1 788/20/1
f 789/61/1 790/62/1 791/63/1 792/64/1
f 793/29/1 794/30/1 795/31/1 796/32/1
f 797/33/1 798/34/1 799/35/1 800/36/1
f 801/25/1 802/26/1 803/27/1 804/28/1
f 805/29/1 806/30/1 807/31/1 808/32/1
f 809/29/1 810/30/1 811/31/1 812/32/1
f 813/65/1 814/66/1 815/67/1 816/68/1
f 817/73/1 818/74/1 819/75/1 820/76/1
f 821/41/1 822/42/1 823/43/1 824/44/1
f 825/69/1 826/70/1 827/71/1 828/72/1
f 829/69/1 830/70/1 831/71/1 832/72/1
f 833/69/1 834/70/1 835/71/1 836/72/1
f 837/69/1 838/70/1 839/71/1 840/72/1
f 841/69/1 842/70/1 843/71/1 844/72/1
f 845/45/1 846/46/1 847/47/1 848/48/1
f 849/29/1 850/30/1 851/31/1 852/32/1
f 853/29/1 854/30/1 855/31/1 856/32/1
f 857/29/1 858/30/1 859/31/1 860/32/1
f 861/29/1 862/30/1 863/31/1 864/32/1
f 865/29/1 866/30/1 867/31/1 868/32/1
f 869/29/1 870/30/1 871/31/1 872/32/1
f 873/29/1 874/30/1 875/31/1 876/32/1
f 877/29/1 878/30/1 879/31/1 880/32/1
f 881/29/1 882/30/1 883/31/1 884/32/1
f 885/29/1 886/30/1 887/31/1 888/32/1
f 889/29/1 890/30/1 891/31/1 892/32/1
f 893/29/1 894/30/1 895/31/1 896/32/1
f 897/29/1 898/30/1 899/31/1 900/32/1
f 901/33/1 902/34/1 903/35/1 904/36/1
f 905/41/1 906/42/1 907/43/1 908/44/1
f 909/69/1 910/70/1 911/71/1 912/72/1
f 913/69/1 914/70/1 915/71/1 916/72/1
f 917/73/1 918/74/1 919/75/1 920/76/1
f 921/41/1 922/42/1 923/43/1 924/44/1
f 925/69/1 926/70/1 927/71/1 928/72/1
f 929/69/1 930/70/1 931/71/1 932/72/1
f 933/69/1 934/70/1 935/71/1 936/72/1
f 937/69/1 938/70/1 939/71/1 940/72/1
f 941/69/1 942/70/1 943/71/1 944/72/1
f 945/69/1 946/70/1 947/71/1 948/72/1
f 949/69/1 950/70/1 951/71/1 952/72/1
f 953/69/1 954/70/1 955/71/1 956/72/1
f 957/69/1 958/70/1 959/71/1 960/72/1
f 961/69/1 962/70/1 963/71/1 964/72/1
f 965/69/1 966/70/1 967/71/1 968/72/1
f 969/69/1 970/70/1 971/71/1 972/72/1
f 973/69/1 974/70/1 975/71/1 976/72/1
f 977/73/1 978/74/1 979/75/1 980/76/1

